<svg width="164pt" height="79pt" viewBox="0 0 166 81" xmlns="http://www.w3.org/2000/svg">
    <g id="fontsvg1708342984680" stroke-linecap="round" fill-rule="evenodd" fill="#056ea9">
        <path d="M 93.75 0.002 L 95.508 0.002 Q 105.103 0.002 107.227 14.651 Q 114.691 46.995 115.895 51.167 A 10.671 10.671 0 0 0 116.016 51.565 L 116.895 51.565 A 0.469 0.469 0 0 0 117.16 51.258 Q 118.25 49.111 121.582 31.936 A 816.141 816.141 0 0 1 123.392 23.603 Q 127.066 7.134 128.614 4.397 A 12.243 12.243 0 0 1 131.191 1.806 A 9.333 9.333 0 0 1 136.817 0.002 L 138.575 0.002 Q 144.321 0.002 146.974 4.776 A 14.914 14.914 0 0 1 148.243 7.912 Q 149.267 11.05 155.444 51.258 A 7469.485 7469.485 0 0 1 157.325 63.576 L 157.325 64.455 Q 156.454 71.953 150.567 72.598 A 10.586 10.586 0 0 1 149.414 72.658 Q 140.625 72.658 140.625 56.838 L 136.524 21.096 Q 135.938 21.096 135.938 20.803 A 0.826 0.826 0 0 0 135.311 21.28 Q 134.407 22.686 133.625 28.244 A 112.302 112.302 0 0 0 133.301 30.764 A 606.872 606.872 0 0 1 130.824 42.664 Q 124.366 72.073 120.411 72.073 L 116.602 72.658 A 12.788 12.788 0 0 1 113.151 72.227 Q 109.014 71.068 107.52 66.799 A 9.971 9.971 0 0 1 107.172 65.657 Q 105.749 60.306 99.743 31.796 A 7155.191 7155.191 0 0 1 97.559 21.389 L 96.68 20.803 A 0.726 0.726 0 0 0 96.102 21.254 Q 95.206 22.794 94.922 29.592 A 3439.018 3439.018 0 0 1 93.587 40.451 Q 90.894 62.038 89.942 66.799 Q 88.49 70.118 86.333 71.557 A 6.544 6.544 0 0 1 82.618 72.658 A 9.137 9.137 0 0 1 79.124 72.038 Q 75.247 70.445 74.509 64.758 A 19.434 19.434 0 0 1 74.414 63.869 A 3645.016 3645.016 0 0 1 76.511 51.297 Q 83.16 11.877 85.338 5.274 A 10.931 10.931 0 0 1 85.547 4.69 A 11.16 11.16 0 0 1 87.975 1.938 A 8.999 8.999 0 0 1 93.75 0.002 Z M 60.059 35.158 L 60.059 37.795 Q 60.059 59.984 41.843 69.016 A 44.184 44.184 0 0 1 38.965 70.315 A 36.568 36.568 0 0 1 30.355 72.165 A 44.71 44.71 0 0 1 26.075 72.365 L 9.375 72.365 A 14.469 14.469 0 0 1 5.751 71.952 Q 1.087 70.742 0.206 65.985 A 13.239 13.239 0 0 1 0 63.576 L 0 12.307 Q 0 5.349 3.516 3.225 A 5.782 5.782 0 0 1 5.102 2.497 Q 8.375 1.467 16.114 1.467 A 168.261 168.261 0 0 1 24.578 1.663 Q 41.323 2.511 44.239 7.033 A 31.998 31.998 0 0 1 54.628 16.298 Q 59.041 22.591 59.868 31.109 A 41.879 41.879 0 0 1 60.059 35.158 Z M 55.079 13.479 L 55.371 13.479 A 34.383 34.383 0 0 1 65.872 37.476 A 45.856 45.856 0 0 1 65.918 39.553 L 65.918 40.725 A 46.208 46.208 0 0 1 63.879 54.94 Q 59.339 69.021 44.693 75.35 A 50.034 50.034 0 0 1 40.137 77.053 A 86.271 86.271 0 0 1 35.55 77.767 Q 31.934 78.225 29.004 78.225 L 14.649 78.225 A 27.345 27.345 0 0 1 10.867 77.983 Q 5.242 77.195 3.223 73.83 L 3.223 73.244 L 3.516 73.244 Q 6.11 74.086 8.302 74.122 A 11.878 11.878 0 0 0 8.496 74.123 L 27.539 74.123 A 36.204 36.204 0 0 0 41.732 71.478 Q 50.833 67.639 56.451 58.225 A 48.17 48.17 0 0 0 60.059 50.686 A 52.118 52.118 0 0 0 62.06 38.195 A 59.488 59.488 0 0 0 62.11 35.744 Q 62.11 23.952 55.079 13.479 Z M 148.829 3.811 L 149.121 3.811 Q 151.795 4.973 153.731 10.194 A 37.526 37.526 0 0 1 154.688 13.186 Q 162.371 61.471 163.106 67.229 A 8.999 8.999 0 0 1 163.184 67.971 Q 162.025 77.513 154.651 78.175 A 12.685 12.685 0 0 1 153.516 78.225 L 151.758 78.225 A 6.7 6.7 0 0 1 147.408 76.593 Q 146.136 75.547 145.02 73.83 L 145.313 73.83 A 81.087 81.087 0 0 0 146.496 74.059 Q 148.066 74.348 148.815 74.403 A 4.251 4.251 0 0 0 149.121 74.416 Q 155.718 74.416 158.203 68.934 A 13.511 13.511 0 0 0 158.789 67.385 Q 159.039 67.011 159.288 64.514 A 73.777 73.777 0 0 0 159.375 63.576 Q 151.172 10.769 149.707 5.569 Q 149.121 5.495 148.829 3.811 Z M 135.059 30.178 L 135.352 30.178 A 0.287 0.287 0 0 1 135.54 30.389 Q 136.213 31.863 137.11 43.655 Q 130.371 77.053 125.684 77.053 A 0.459 0.459 0 0 1 125.43 77.415 Q 124.729 77.88 122.092 78.151 A 41.882 41.882 0 0 1 121.289 78.225 L 118.946 78.225 Q 111.036 77.126 111.036 73.537 A 17.933 17.933 0 0 0 116.602 74.416 Q 123.633 74.416 125.977 68.264 A 115.402 115.402 0 0 0 128.472 60.306 Q 131.69 48.761 135.059 30.178 Z M 93.164 60.354 L 96.68 28.713 L 97.266 28.713 L 99.61 40.725 Q 96.5 71.132 94.825 72.849 A 0.283 0.283 0 0 1 94.629 72.951 Q 92.867 76.046 90.65 77.325 A 6.585 6.585 0 0 1 87.305 78.225 L 84.961 78.225 A 7.184 7.184 0 0 1 81.117 77.067 Q 80.039 76.397 79.004 75.339 A 16.633 16.633 0 0 1 77.93 74.123 L 77.93 73.537 A 24.777 24.777 0 0 0 79.584 74.001 Q 80.446 74.209 81.205 74.312 A 10.456 10.456 0 0 0 82.618 74.416 A 8.633 8.633 0 0 0 90.539 69.588 Q 91.563 67.776 92.24 65.283 A 34.573 34.573 0 0 0 93.164 60.354 Z M 16.114 17.58 L 16.114 56.545 Q 16.114 56.892 16.662 57.239 A 3.782 3.782 0 0 0 16.993 57.424 L 22.559 57.424 A 29.246 29.246 0 0 0 30.322 56.485 Q 39.204 54.034 41.598 45.191 A 28.349 28.349 0 0 0 42.481 37.795 L 42.481 34.865 Q 42.481 17.428 23.31 16.73 A 44.86 44.86 0 0 0 21.68 16.701 L 16.993 16.701 Q 16.645 16.701 16.298 17.25 A 3.782 3.782 0 0 0 16.114 17.58 Z M 37.5 24.319 L 37.5 24.612 A 27.208 27.208 0 0 0 30.098 22.761 A 33.88 33.88 0 0 0 26.368 22.561 L 21.973 22.561 L 21.973 55.08 A 0.844 0.844 0 0 1 21.944 55.312 Q 21.87 55.572 21.604 55.641 A 0.863 0.863 0 0 1 21.387 55.666 L 18.75 55.666 A 0.844 0.844 0 0 1 18.519 55.637 Q 18.258 55.563 18.189 55.297 A 0.863 0.863 0 0 1 18.164 55.08 L 18.164 19.045 A 0.536 0.536 0 0 1 18.249 18.738 Q 18.437 18.459 19.043 18.459 A 60.39 60.39 0 0 1 25.01 18.73 Q 30.853 19.313 34.15 21.154 A 8.404 8.404 0 0 1 37.5 24.319 Z M 116.895 45.412 L 116.309 45.412 Q 109.207 13.454 106.237 4.358 A 51.486 51.486 0 0 0 106.055 3.811 Q 110.01 5.935 112.207 14.358 Q 112.207 15.017 118.067 39.846 Q 117.1 43.895 116.931 45.052 A 2.784 2.784 0 0 0 116.895 45.412 Z"
              vector-effect="non-scaling-stroke"/>
    </g>
</svg>